HIERARCHY
ROOT hip
{
	OFFSET 0.000000 0.000000 0.000000 
	CHANNELS 6 Xposition Yposition Zposition Xrotation Zrotation Yrotation
	JOINT abdomen
	{
		OFFSET 0.000000 3.402643 0.000000 
		CHANNELS 3 Xrotation Zrotation Yrotation
		JOINT chest
		{
			OFFSET 0.000000 8.438565 -0.680529 
			CHANNELS 3 Xrotation Zrotation Yrotation
			JOINT neck
			{
				OFFSET 0.000000 10.207942 -0.272212 
				CHANNELS 3 Xrotation Zrotation Yrotation
				JOINT head
				{
					OFFSET 0.000000 3.130431 0.000000 
					CHANNELS 3 Xrotation Zrotation Yrotation
					End Site
					{
						OFFSET 0.000000 3.130435 0.000000 
					}
				}
			}
			JOINT lCollar
			{
				OFFSET 3.470700 6.669187 -0.816635 
				CHANNELS 3 Yrotation Zrotation Xrotation
				JOINT lShldr
				{
					OFFSET 3.198488 0.000000 0.000000 
					CHANNELS 3 Zrotation Yrotation Xrotation
					JOINT lForeArm
					{
						OFFSET 10.139888 0.000000 0.000000 
						CHANNELS 3 Yrotation Zrotation Xrotation
						JOINT lHand
						{
							OFFSET 8.370511 0.000000 0.000000 
							CHANNELS 3 Zrotation Yrotation Xrotation
							End Site
							{
								OFFSET 4.083176 0.000000 0.000000 
							}
						}
					}
				}
			}
			JOINT rCollar
			{
				OFFSET -3.470700 6.669187 -0.816635 
				CHANNELS 3 Yrotation Zrotation Xrotation
				JOINT rShldr
				{
					OFFSET -3.198488 0.000000 0.000000 
					CHANNELS 3 Zrotation Yrotation Xrotation
					JOINT rForeArm
					{
						OFFSET -10.139888 0.000000 0.000000 
						CHANNELS 3 Yrotation Zrotation Xrotation
						JOINT rHand
						{
							OFFSET -8.370511 0.000000 0.000000 
							CHANNELS 3 Zrotation Yrotation Xrotation
							End Site
							{
								OFFSET -4.083176 0.000000 0.000000 
							}
						}
					}
				}
			}
		}
	}
	JOINT lThigh
	{
		OFFSET 5.308129 -1.633274 1.361059 
		CHANNELS 3 Xrotation Zrotation Yrotation
		JOINT lShin
		{
			OFFSET -2.041588 -20.007561 0.000000 
			CHANNELS 3 Xrotation Zrotation Yrotation
			JOINT lFoot
			{
				OFFSET 0.000000 -19.190928 -1.224953 
				CHANNELS 3 Xrotation Yrotation Zrotation
				End Site
				{
					OFFSET 0.000000 -2.449906 4.627600 
				}
			}
		}
	}
	JOINT rThigh
	{
		OFFSET -5.308129 -1.633274 1.361059 
		CHANNELS 3 Xrotation Zrotation Yrotation
		JOINT rShin
		{
			OFFSET 2.041588 -20.007561 0.000000 
			CHANNELS 3 Xrotation Zrotation Yrotation
			JOINT rFoot
			{
				OFFSET 0.000000 -19.190928 -1.224953 
				CHANNELS 3 Xrotation Yrotation Zrotation
				End Site
				{
					OFFSET 0.000000 -2.449906 4.627600 
				}
			}
		}
	}
}
MOTION
Frames: 11
Frame Time: 0.033333
19.550039 46.443512 48.930222 -1.438208 -7.536715 3.918796 -23.022779 -3.512481 0.661482 26.526762 -6.215933 6.983992 23.067509 -22.612057 11.550386 -31.786499 15.528439 6.732887 3.344821 -11.716376 -1.508335 -44.156857 24.346380 6.743496 -56.756760 1.842575 -12.979717 1.761954 -25.994038 0.798012 -13.514675 -30.000000 -14.314592 -40.044857 58.237274 -42.172707 19.283606 -22.960638 2.614526 -7.796319 35.295677 -3.952221 -15.335760 4.627825 -8.360188 26.618839 10.631924 0.827547 -10.063273 2.015487 -11.505349 -10.268765 3.455641 -4.399705 15.113677 -7.634653 5.194798 -5.188842 -1.750899 16.284254 
18.660362 46.317795 49.193451 -2.668224 -7.316365 7.966705 -22.895094 -3.687749 0.694701 28.569601 -7.338210 8.979113 23.902098 -19.160757 8.010107 -31.019291 15.171209 3.488073 3.704530 -13.124936 -0.073595 -45.411949 23.531219 3.360572 -71.520737 -1.797707 -14.218670 -1.387046 -25.003094 1.576936 -8.441690 -30.000000 -8.122898 -48.510918 68.494225 -55.450775 31.292641 -24.392694 19.342293 -4.461740 30.324680 -2.989964 -15.724692 5.770037 -11.256557 27.906879 8.986094 -1.011477 -10.810783 2.054289 -11.621164 -9.328654 3.806504 -10.054337 16.616776 -8.333038 6.574802 -6.636655 -1.805782 14.962353 
17.251678 45.992733 50.028286 -4.637791 -7.349170 15.261357 -22.777094 -3.872751 0.717583 32.624317 -9.429098 10.538134 19.414989 -14.059305 2.804588 -28.666740 12.374412 -1.002620 2.202676 -14.806098 3.089905 -46.979259 22.533743 9.876695 -80.318710 -0.674515 -7.176937 1.754107 -26.491459 0.898472 -0.504504 -30.000000 1.592121 -47.912952 76.807983 -57.658306 42.555168 -21.930397 34.779812 -4.304053 28.030931 -2.998327 -16.833481 7.187034 -15.168913 30.839437 8.063437 -5.410453 -12.951073 2.314767 -12.068391 -8.375766 4.452542 -14.615343 21.578903 -7.352402 3.622772 -10.957802 -2.077636 13.020637 
15.787826 45.609081 51.212593 -5.939649 -6.741295 25.875238 -22.659046 -4.047946 0.749952 37.910122 -12.254678 11.493429 12.866693 -8.130849 -5.929312 -27.383060 8.092383 -8.361010 -0.568852 -17.549505 7.039411 -48.945129 20.684437 16.215643 -73.486130 1.247044 4.568611 8.146554 -29.899273 -0.819618 4.458388 -30.000000 7.891496 -3.719137 86.111572 -14.158071 57.445354 -16.712204 46.988880 -3.738886 21.523516 -2.947170 -19.496759 7.070324 -20.648079 33.664780 7.477269 -11.581383 -14.973089 2.530328 -12.105224 -7.605021 3.837729 -19.263113 27.077793 -4.844590 -1.910315 -16.180149 -2.440369 11.703490 
14.827930 45.267746 52.156059 -6.431036 -5.929518 34.934170 -22.540920 -4.223089 0.781607 43.123230 -14.488126 12.050738 5.621831 -3.286656 -14.134513 -24.874193 3.347698 -14.313149 -2.824522 -19.700432 10.046040 -51.835274 18.710470 20.195854 -60.176727 3.241305 4.964141 14.004260 -33.333134 -2.756866 6.187502 -30.000000 10.111829 94.066223 84.087898 88.246910 65.476715 -13.700224 52.006752 -1.419235 13.234217 -2.841971 -22.155371 5.517851 -25.215363 35.770267 7.362661 -16.578581 -16.160650 2.627909 -11.942237 -6.843573 2.139292 -24.741943 30.949766 -2.080249 -4.542112 -20.255665 -2.676225 10.800295 
14.530082 45.090767 52.493324 -6.641504 -5.451674 38.573170 -22.412920 -4.398139 0.811799 46.531094 -14.980727 12.593916 3.919330 -1.961226 -18.145424 -25.694857 0.723961 -17.082539 -3.418561 -21.516140 10.725742 -52.728218 17.914402 25.254538 -48.005787 5.285992 -2.345943 16.191298 -37.554962 -3.908212 8.543406 -30.000000 12.869065 -45.911461 102.008377 -46.354633 61.511959 -13.011827 50.335278 -0.939771 8.872195 -2.982627 -23.039019 4.328255 -26.464273 36.665279 7.923645 -18.810659 -16.614231 2.675639 -11.868518 -6.420652 1.213596 -27.526981 32.606503 -1.225148 -4.913000 -21.881306 -2.807786 10.617942 
14.648676 45.096870 52.506752 -6.764285 -5.013864 39.079678 -22.294630 -4.573167 0.831454 48.202549 -15.011152 13.353344 4.426635 -1.753639 -18.637621 -26.230560 -0.175801 -17.137924 -3.528587 -21.931145 11.312940 -53.347034 17.261822 27.736698 -42.013229 6.347034 -6.588736 16.412468 -40.042801 -4.271634 9.312288 -30.000000 14.109574 -40.020969 106.267860 -39.928135 57.201298 -13.305901 50.600273 0.355041 9.476009 -3.010770 -22.332243 3.691456 -25.224171 36.163879 8.780504 -19.937359 -16.427532 2.635355 -11.655711 -5.842832 0.932084 -28.062853 32.434311 -1.723554 -4.888899 -21.872345 -2.917246 11.113756 
14.932896 45.151386 52.412369 -6.704971 -4.965974 38.473183 -22.176205 -4.757887 0.860355 48.399540 -14.846524 14.449614 5.756035 -2.048955 -18.508991 -26.269632 0.185011 -17.113371 -3.133029 -21.469181 11.707281 -53.315815 17.313410 28.658224 -40.858349 6.398386 -6.348755 16.455153 -41.026260 -4.361024 9.618677 -30.000000 14.600806 -42.924633 107.530037 -43.177597 56.027504 -13.665411 47.929775 2.700498 10.115679 -2.984837 -21.985634 3.595390 -24.336924 35.994602 8.543928 -19.979551 -16.228815 2.510659 -11.014875 -5.531907 0.706986 -27.874380 31.910452 -2.128870 -4.416999 -21.463751 -2.978928 11.554351 
15.254744 45.222179 52.240273 -6.639388 -5.257671 37.514629 -22.057734 -4.932795 0.889080 47.929585 -13.918730 15.147186 7.280599 -2.870516 -18.328611 -25.976982 0.379924 -17.050200 -2.652227 -20.749575 11.307740 -52.814453 18.045889 27.941681 -42.839958 6.318792 -4.713522 15.610626 -41.288857 -4.001399 10.310961 -30.000000 15.455434 -37.841198 106.988220 -36.535801 51.215076 -14.276463 41.147316 3.016083 12.221557 -2.969491 -22.003925 3.790897 -24.081339 36.085018 7.784224 -19.310556 -16.005970 2.355650 -10.367885 -5.331283 0.420021 -27.773317 31.137980 -2.104297 -3.424112 -20.838675 -2.947078 11.733693 
15.647996 45.321445 52.047840 -6.583726 -5.549332 36.361946 -21.929361 -5.107585 0.916225 47.059315 -13.166954 15.898732 8.512552 -2.669295 -18.352739 -26.181713 0.157341 -16.859602 -2.183609 -19.735113 10.816145 -52.280388 17.319445 26.995092 -46.005020 6.265935 -2.617582 15.780957 -40.985634 -3.953340 10.535776 -29.855600 15.698987 -34.980061 105.912750 -31.656099 43.520760 -14.701289 34.434402 2.308631 17.307041 -2.872396 -21.719772 3.956774 -23.004276 35.814812 7.444484 -19.015806 -15.681873 2.213340 -9.625616 -4.950334 0.156854 -27.164419 30.038540 -2.021344 -2.716076 -19.995993 -2.899695 12.017711 
16.234335 45.428040 51.885509 -6.681286 -5.499736 33.504406 -21.810694 -5.282360 0.943500 45.822403 -11.569028 15.908682 8.728159 -3.523870 -16.891512 -25.100342 0.987135 -15.663160 -1.941118 -19.595398 9.283701 -51.335018 15.197165 25.942980 -47.933479 6.216450 -0.931519 12.615108 -37.832867 -2.405987 10.482574 -27.539787 15.025061 -43.461926 105.420578 -39.900532 34.330933 -15.611959 29.841318 1.413497 22.334543 -2.834091 -20.338961 4.277554 -20.597942 35.129017 6.978016 -17.884708 -15.358043 2.028395 -8.675920 -4.130124 -0.175442 -24.952578 28.588316 -2.050524 -2.005254 -19.082815 -2.833817 12.375918 
